# xmcd CD database file
#
# Track frame offsets:
#	150
#	9075
#	26100
#	42900
#	57375
#	73125
#	100650
#	122100
#	148725
#	174975
#	189900
#	207600
#	240900
#	259350
#	281100
#	317175
#
# Disc length: 4416 seconds
#
# Revision: 1
# Processed by: cddbd v1.5.2PL0 Copyright (c) Steve Scherf et al.
# Submitted via: CDex 1.70beta2
#
DISCID=eb113e10
DTITLE=Kim Nazaretov's BIG-BAND - Kim Nazaretov's BIG-BAND
DYEAR=2002
DGENRE=Jazz
TTITLE0=Spring Is Coming
TTITLE1=Everybody Has His Own Sadness
TTITLE2=Wine Street Rumble
TTITLE3=Straight No Chaser
TTITLE4=Route 66
TTITLE5=Flying Pava
TTITLE6=Fingers
TTITLE7=What Are You Doing The Rest Of Your Life
TTITLE8=Well You Needn't
TTITLE9=Acquaintance With the Orchestra
TTITLE10=Only You
TTITLE11=Lost melodies
TTITLE12=Take the A Train
TTITLE13=Happy Reunion
TTITLE14=Stabat Mater Dolorosa
TTITLE15=Jazz medley
EXTD=Джаз-оркестр Кима Назаретова Цифровой ремастер 2002 г. YEAR: 2002
EXTT0=
EXTT1=
EXTT2=
EXTT3=
EXTT4=
EXTT5=
EXTT6=
EXTT7=
EXTT8=
EXTT9=
EXTT10=
EXTT11=
EXTT12=
EXTT13=
EXTT14=
EXTT15=
PLAYORDER=
